<?xml version="1.0" encoding="utf-8"?>
<!-- Generator: Adobe Illustrator 26.4.1, SVG Export Plug-In . SVG Version: 6.00 Build 0)  -->
<svg version="1.1" id="Capa_1" xmlns="http://www.w3.org/2000/svg" xmlns:xlink="http://www.w3.org/1999/xlink" x="0px" y="0px"
	 viewBox="0 0 237.4 237.4" style="enable-background:new 0 0 237.4 237.4;" xml:space="preserve">
<style type="text/css">
	.st0{fill:#D0BB78;}
</style>
<g>
	<g id="change1_1">
		<path class="st0" d="M149.7,50.5H87.8c-20.5,0-37.2,16.7-37.2,37.2v61.9c0,20.5,16.7,37.2,37.2,37.2h61.9
			c20.5,0,37.2-16.7,37.2-37.2V87.8C186.9,67.2,170.2,50.5,149.7,50.5z M175.2,149.7c0,14.1-11.4,25.5-25.5,25.5H87.8
			c-14.1,0-25.6-11.4-25.6-25.5V87.8c0-14.1,11.5-25.6,25.6-25.6h61.9c14.1,0,25.5,11.4,25.5,25.6L175.2,149.7L175.2,149.7z"/>
		<path class="st0" d="M164.3,81.4c0,4.6-3.7,8.4-8.4,8.4c-4.6,0-8.4-3.7-8.4-8.4c0-4.6,3.7-8.4,8.4-8.4
			C160.6,73.1,164.3,76.8,164.3,81.4z"/>
		<path class="st0" d="M118.7,84C99.6,84,84,99.6,84,118.7s15.6,34.7,34.7,34.7s34.7-15.6,34.7-34.7S137.9,84,118.7,84z
			 M118.7,141.7c-12.7,0-23-10.3-23-23s10.3-23,23-23s23,10.3,23,23S131.4,141.7,118.7,141.7z"/>
	</g>
	<g id="change1_2">
		<path class="st0" d="M118.7,237.4C53.3,237.4,0,184.2,0,118.7C0,53.3,53.3,0,118.7,0c65.5,0,118.7,53.3,118.7,118.7
			C237.4,184.2,184.2,237.4,118.7,237.4z M118.7,6.5C56.8,6.5,6.5,56.8,6.5,118.7s50.3,112.2,112.2,112.2s112.2-50.3,112.2-112.2
			S180.6,6.5,118.7,6.5z"/>
	</g>
</g>
</svg>
