<?xml version="1.0" encoding="UTF-8"?>
<svg id="Capa_2" data-name="Capa 2" xmlns="http://www.w3.org/2000/svg" viewBox="0 0 33.03 43.08">
  <defs>
    <style>
      .cls-1 {
        fill: #d0bb78;
      }
    </style>
  </defs>
  <g id="Modo_de_aislamiento" data-name="Modo de aislamiento">
    <g>
      <path class="cls-1" d="M25.92,35.04h-2.68c-.74,0-1.34,.6-1.34,1.34s.6,1.34,1.34,1.34h2.68c.74,0,1.34-.6,1.34-1.34s-.6-1.34-1.34-1.34Z"/>
      <path class="cls-1" d="M18.48,.2c-.63-.13-1.28-.2-1.95-.2C11.36,0,7.17,4.21,7.17,9.39v5.36c0,2.55,1.02,4.87,2.68,6.56v3.3l-4.77,1.19c-3.48,.87-5.65,4.3-4.95,7.82l1.68,8.39c.13,.63,.68,1.08,1.31,1.08H29.9c.64,0,1.19-.45,1.31-1.08l1.68-8.39c.7-3.51-1.47-6.95-4.95-7.82-.29-.07-4.59-1.12-4.88-1.19v-3.12c1.76-1.71,2.86-4.1,2.86-6.74v-5.36c0-.67-.07-1.32-.2-1.95C24.42,.99,18.48,.2,18.48,.2Zm2.92,26.75l.44,.11c-1.25,1.62-3.2,2.61-5.31,2.61s-4.09-1-5.34-2.65l.3-.07c.6-.15,1.02-.69,1.02-1.3v-2.43c1.22,.58,2.58,.91,4.02,.91s2.67-.3,3.85-.83v2.34c0,.62,.42,1.16,1.02,1.3Zm1.85-12.21c0,3.7-3.03,6.7-6.72,6.7s-6.7-3.01-6.7-6.7v-4.02h6.7c2.48,0,4.83-.99,6.57-2.69,.09,.43,.15,.88,.15,1.34v5.36ZM16.53,2.68c2.19,0,4.14,1.06,5.36,2.68-1.26,1.67-3.25,2.68-5.36,2.68h-6.57c.62-3.06,3.33-5.36,6.57-5.36Zm13.73,30.41l-1.46,7.32H4.22l-1.46-7.32c-.42-2.11,.88-4.17,2.97-4.69l2.71-.68c1.67,2.85,4.74,4.64,8.1,4.64s6.41-1.78,8.08-4.62l2.68,.65c2.09,.52,3.39,2.58,2.97,4.69Z"/>
    </g>
  </g>
</svg>