<?xml version="1.0" encoding="UTF-8"?>
<svg id="Capa_2" data-name="Capa 2" xmlns="http://www.w3.org/2000/svg" viewBox="0 0 547.34 99.07">
  <defs>
    <style>
      .cls-1 {
        fill: #fff;
      }
    </style>
  </defs>
  <g id="Capa_1-2" data-name="Capa 1">
    <g>
      <path class="cls-1" d="M10.85,50.08h30.55v9.18H0V.83H10.85V50.08Zm39.14,9.18h10.85V.83h-10.85V59.26ZM131.53,.83l-22.8,38.71L85.55,.83h-8.93V59.26h10.35V21.06l19.2,31.6h4.92l19.11-32.21V59.26h10.43l-.17-58.42h-8.93Zm53.5,0l26.37,58.42h-11.43l-5.79-13.52h-29.22l-5.81,13.52h-11.1L174.35,.83h10.68Zm5.51,36.39l-10.94-25.57-10.98,25.57h21.92Zm74.19-26.79c2,3.12,3.01,6.84,3.01,11.18s-1,7.97-3.01,11.06c-2,3.09-4.85,5.48-8.55,7.18-3.7,1.7-8.14,2.55-13.31,2.55h-13.19v16.86h-10.85V.83h24.04c5.17,0,9.61,.82,13.31,2.46,3.7,1.64,6.55,4.02,8.55,7.14Zm-7.93,11.18c0-3.67-1.21-6.52-3.63-8.55-2.42-2.03-6.02-3.05-10.81-3.05h-12.69v23.2h12.69c4.78,0,8.39-1.01,10.81-3.05,2.42-2.03,3.63-4.88,3.63-8.55Zm21.78,37.64h10.85V.83h-10.85V59.26ZM333.93,.83l26.37,58.42h-11.44l-5.79-13.52h-29.22l-5.81,13.52h-11.1L323.24,.83h10.68Zm5.51,36.39l-10.94-25.57-10.98,25.57h21.92Zm69.44,3.24L376.66,.83h-8.93V59.26h10.77V19.64l32.13,39.62h8.93V.83h-10.68V40.46Zm82.88-22.44c1.56,3.67,2.34,7.68,2.34,12.02s-.78,8.33-2.34,11.98c-1.56,3.64-3.74,6.83-6.55,9.56-2.81,2.73-6.14,4.83-9.97,6.3-3.84,1.47-8.01,2.21-12.52,2.21s-8.69-.75-12.56-2.25c-3.87-1.5-7.22-3.62-10.06-6.34-2.84-2.73-5.04-5.91-6.59-9.56-1.56-3.64-2.34-7.61-2.34-11.89s.78-8.33,2.34-11.98c1.56-3.64,3.76-6.81,6.59-9.51,2.84-2.7,6.18-4.8,10.02-6.3,3.84-1.5,8.04-2.25,12.6-2.25s8.68,.74,12.52,2.21c3.84,1.47,7.16,3.56,9.97,6.26,2.81,2.7,4.99,5.88,6.55,9.56Zm-8.6,12.02c0-3-.5-5.76-1.5-8.26-1-2.5-2.43-4.67-4.3-6.51-1.86-1.84-4.03-3.26-6.51-4.26-2.48-1-5.19-1.5-8.14-1.5s-5.69,.5-8.22,1.5c-2.53,1-4.72,2.43-6.55,4.3-1.84,1.86-3.28,4.04-4.34,6.51-1.06,2.48-1.59,5.22-1.59,8.22s.53,5.68,1.59,8.18c1.06,2.5,2.5,4.69,4.34,6.55,1.84,1.86,4.02,3.3,6.55,4.3,2.53,1,5.27,1.5,8.22,1.5s5.66-.5,8.14-1.5c2.47-1,4.63-2.42,6.47-4.26,1.84-1.84,3.27-4.01,4.3-6.51,1.03-2.5,1.54-5.26,1.54-8.26Zm62.3,5.13c-1.25-1.97-2.91-3.56-4.97-4.76-2.06-1.2-4.31-2.17-6.76-2.92-2.45-.75-4.92-1.4-7.43-1.96-2.5-.56-4.77-1.14-6.8-1.75-2.03-.61-3.67-1.46-4.92-2.55-1.25-1.09-1.88-2.52-1.88-4.3,0-1.45,.43-2.77,1.29-3.96,.86-1.2,2.24-2.16,4.13-2.88,1.89-.72,4.31-1.08,7.26-1.08,2.56,0,5.23,.38,8.01,1.13,2.78,.75,5.48,1.91,8.1,3.46l3.42-8.43c-2.56-1.67-5.56-2.95-9.01-3.84-3.45-.89-6.93-1.34-10.43-1.34-5.34,0-9.75,.79-13.23,2.38-3.48,1.59-6.06,3.7-7.76,6.34-1.7,2.64-2.55,5.55-2.55,8.72s.63,5.68,1.88,7.68c1.25,2,2.91,3.6,4.97,4.8,2.06,1.2,4.33,2.18,6.8,2.96,2.47,.78,4.95,1.43,7.43,1.96,2.47,.53,4.73,1.11,6.76,1.75,2.03,.64,3.69,1.5,4.97,2.59,1.28,1.08,1.92,2.52,1.92,4.3,0,1.45-.45,2.74-1.34,3.88-.89,1.14-2.28,2.04-4.17,2.71-1.89,.67-4.37,1-7.43,1-3.62,0-7.15-.61-10.6-1.84-3.45-1.22-6.34-2.75-8.68-4.59l-3.76,8.43c2.5,2.06,5.83,3.74,9.97,5.05,4.14,1.31,8.5,1.96,13.06,1.96,5.34,0,9.77-.79,13.27-2.38s6.11-3.7,7.8-6.34c1.7-2.64,2.55-5.52,2.55-8.64s-.63-5.58-1.88-7.55Z"/>
      <path class="cls-1" d="M15.25,90.53c.45,.69,.68,1.58,.68,2.66s-.29,2.01-.86,2.91c-.57,.9-1.45,1.62-2.65,2.16-1.19,.54-2.69,.81-4.51,.81-1.58,0-3.08-.24-4.52-.72-1.44-.48-2.57-1.11-3.4-1.88l1.09-2.31c.79,.69,1.79,1.26,3.01,1.71,1.22,.45,2.49,.68,3.81,.68,1.2,0,2.18-.14,2.93-.41,.75-.28,1.3-.65,1.66-1.14,.35-.48,.53-1.03,.53-1.64,0-.71-.23-1.28-.69-1.71-.46-.43-1.06-.78-1.8-1.05-.74-.27-1.55-.5-2.44-.69-.89-.2-1.78-.43-2.68-.69-.9-.27-1.71-.61-2.45-1.02-.74-.41-1.34-.97-1.79-1.67-.45-.7-.68-1.6-.68-2.7s.28-2.04,.84-2.94c.56-.9,1.43-1.62,2.6-2.16,1.17-.54,2.66-.81,4.48-.81,1.2,0,2.39,.16,3.58,.47,1.18,.32,2.21,.77,3.07,1.36l-.98,2.36c-.89-.59-1.82-1.02-2.81-1.29-.99-.27-1.94-.4-2.87-.4-1.16,0-2.12,.15-2.87,.44-.75,.3-1.3,.69-1.64,1.18-.34,.49-.52,1.04-.52,1.66,0,.73,.23,1.31,.69,1.74,.46,.43,1.06,.78,1.8,1.03,.74,.26,1.55,.49,2.44,.69,.89,.21,1.78,.44,2.68,.69,.9,.26,1.71,.59,2.45,1.01s1.33,.97,1.79,1.66Zm7.95-.95h10.37v-2.51h-10.37v-6.35h11.64v-2.57h-14.6v20.69h15.01v-2.57h-12.06v-6.68Zm20.41-6.8c.74-.71,1.62-1.26,2.63-1.66,1.01-.39,2.11-.59,3.3-.59s2.24,.19,3.24,.58c.99,.38,1.92,.99,2.76,1.82l1.83-1.83c-.95-1.06-2.1-1.86-3.46-2.39s-2.86-.8-4.49-.8-3.09,.26-4.43,.78c-1.34,.52-2.51,1.26-3.5,2.22-1,.96-1.77,2.07-2.32,3.35-.55,1.28-.83,2.69-.83,4.23s.28,2.95,.83,4.23c.55,1.28,1.32,2.4,2.31,3.35s2.15,1.69,3.49,2.22,2.81,.78,4.4,.78c1.46,0,2.87-.22,4.24-.67,1.37-.44,2.57-1.1,3.59-1.97v-8.07h-2.84v6.72c-.53,.35-1.09,.63-1.67,.83-1.02,.34-2.07,.52-3.18,.52-1.18,0-2.28-.2-3.28-.59-1.01-.39-1.88-.95-2.62-1.67-.74-.72-1.31-1.57-1.71-2.54-.4-.98-.61-2.02-.61-3.15s.2-2.2,.61-3.18c.4-.97,.98-1.82,1.71-2.53Zm33.68,7c0,2.31-.51,3.99-1.52,5.05-1.02,1.06-2.46,1.6-4.33,1.6s-3.29-.53-4.3-1.6c-1.02-1.06-1.52-2.75-1.52-5.05v-11.64h-2.96v11.76c0,3,.78,5.27,2.34,6.83,1.56,1.56,3.69,2.34,6.41,2.34s4.88-.78,6.43-2.34c1.55-1.56,2.32-3.83,2.32-6.83v-11.76h-2.87v11.64Zm23.76,3.77l-12.41-15.42h-2.42v20.69h2.96v-15.42l12.41,15.42h2.42v-20.69h-2.96v15.42Zm27.65-10.48c.94,1.56,1.4,3.36,1.4,5.41s-.47,3.85-1.4,5.41c-.94,1.56-2.25,2.77-3.93,3.64-1.68,.87-3.63,1.3-5.84,1.3h-8.72v-20.69h8.72c2.21,0,4.15,.43,5.84,1.3,1.68,.87,3,2.08,3.93,3.64Zm-1.55,5.41c0-1.56-.34-2.92-1.03-4.08-.69-1.16-1.66-2.07-2.91-2.72-1.25-.65-2.73-.98-4.45-.98h-5.59v15.55h5.59c1.71,0,3.2-.32,4.45-.98,1.25-.65,2.22-1.56,2.91-2.73,.69-1.17,1.03-2.53,1.03-4.06Zm16.34-10.34l9.4,20.69h-3.1l-2.27-5.17h-11l-2.27,5.17h-3.04l9.37-20.69h2.93Zm2.98,13.15l-4.46-10.15-4.46,10.15h8.92Zm21.03-8.51c.74-.71,1.62-1.26,2.63-1.66,1.01-.39,2.11-.59,3.3-.59s2.24,.19,3.24,.58c.99,.38,1.92,.99,2.76,1.82l1.83-1.83c-.95-1.06-2.1-1.86-3.46-2.39s-2.86-.8-4.49-.8-3.09,.26-4.43,.78c-1.34,.52-2.51,1.26-3.5,2.22-1,.96-1.77,2.07-2.32,3.35-.55,1.28-.83,2.69-.83,4.23s.28,2.95,.83,4.23c.55,1.28,1.32,2.4,2.31,3.35s2.15,1.69,3.49,2.22,2.81,.78,4.4,.78c1.46,0,2.87-.22,4.24-.67,1.37-.44,2.57-1.1,3.59-1.97v-8.07h-2.84v6.72c-.53,.35-1.09,.63-1.67,.83-1.02,.34-2.07,.52-3.18,.52-1.18,0-2.28-.2-3.28-.59-1.01-.39-1.88-.95-2.62-1.67-.74-.72-1.31-1.57-1.71-2.54-.4-.98-.61-2.02-.61-3.15s.2-2.2,.61-3.18c.4-.97,.98-1.82,1.71-2.53Zm22.18,6.8h10.37v-2.51h-10.37v-6.35h11.64v-2.57h-14.6v20.69h15.01v-2.57h-12.06v-6.68Zm31.68,3.98l-12.41-15.42h-2.42v20.69h2.96v-15.42l12.41,15.42h2.42v-20.69h-2.96v15.42Zm12.12-3.98h10.37v-2.51h-10.37v-6.35h11.64v-2.57h-14.6v20.69h15.01v-2.57h-12.06v-6.68Zm28.98,2.31l4.92,6.94h-3.22l-4.45-6.35c-.42,.04-.86,.05-1.31,.05h-5.11v6.3h-2.96v-20.69h8.07c1.81,0,3.36,.29,4.64,.86,1.28,.57,2.27,1.4,2.96,2.48s1.03,2.37,1.03,3.87-.34,2.78-1.03,3.86c-.69,1.07-1.67,1.9-2.96,2.47-.18,.08-.38,.14-.57,.21Zm.14-3.09c.97-.82,1.46-1.97,1.46-3.44s-.49-2.62-1.46-3.43c-.98-.81-2.41-1.21-4.3-1.21h-5.02v9.31h5.02c1.89,0,3.32-.41,4.3-1.23Zm18.37-10.65l9.4,20.69h-3.1l-2.27-5.17h-11l-2.27,5.17h-3.04l9.37-20.69h2.93Zm2.98,13.15l-4.46-10.15-4.46,10.15h8.92Zm12.77-8.51c.73-.71,1.59-1.26,2.59-1.66s2.07-.59,3.24-.59,2.18,.2,3.16,.61c.98,.4,1.87,1.02,2.66,1.85l1.92-1.86c-.95-1.06-2.09-1.87-3.44-2.41-1.35-.54-2.82-.81-4.42-.81s-3.03,.26-4.36,.78c-1.33,.52-2.49,1.26-3.47,2.22-.99,.96-1.75,2.07-2.31,3.35-.55,1.28-.83,2.69-.83,4.23s.28,2.95,.83,4.23c.55,1.28,1.32,2.4,2.29,3.35,.98,.96,2.13,1.69,3.46,2.22,1.33,.52,2.78,.78,4.36,.78s3.1-.28,4.45-.83c1.35-.55,2.5-1.36,3.44-2.42l-1.92-1.86c-.79,.85-1.67,1.47-2.66,1.88-.99,.4-2.04,.61-3.16,.61s-2.24-.2-3.24-.59c-.99-.39-1.86-.95-2.59-1.66s-1.3-1.55-1.7-2.53-.61-2.03-.61-3.18,.2-2.2,.61-3.18c.4-.97,.97-1.82,1.7-2.53Zm17.79,16.05h2.96v-20.69h-2.96v20.69Zm28.65-14.56c.54,1.29,.81,2.69,.81,4.21s-.27,2.95-.81,4.23c-.54,1.28-1.31,2.4-2.29,3.35-.99,.96-2.15,1.69-3.49,2.22-1.34,.52-2.8,.78-4.37,.78s-3.04-.27-4.39-.8c-1.35-.53-2.52-1.28-3.5-2.23-.99-.96-1.75-2.07-2.31-3.35-.55-1.28-.83-2.68-.83-4.2s.28-2.92,.83-4.2c.55-1.28,1.32-2.4,2.31-3.35,.98-.96,2.15-1.7,3.49-2.23s2.81-.8,4.4-.8,3.03,.26,4.37,.78c1.34,.52,2.5,1.26,3.49,2.22,.98,.96,1.75,2.08,2.29,3.37Zm-2.14,4.21c0-1.14-.2-2.19-.61-3.15-.4-.96-.97-1.8-1.69-2.53s-1.57-1.29-2.54-1.68c-.97-.39-2.04-.59-3.21-.59s-2.2,.2-3.18,.59c-.97,.39-1.83,.96-2.56,1.68s-1.3,1.57-1.7,2.53c-.4,.96-.61,2.01-.61,3.15s.2,2.2,.61,3.16c.4,.97,.97,1.81,1.7,2.53,.73,.72,1.58,1.28,2.56,1.67,.98,.39,2.03,.59,3.18,.59s2.23-.2,3.21-.59c.98-.39,1.82-.95,2.54-1.67,.72-.72,1.28-1.56,1.69-2.53,.4-.97,.61-2.02,.61-3.16Zm-2.6-15.87h-3.61l-4.02,3.84h2.66l4.97-3.84Zm24.91,20.94l-12.41-15.42h-2.42v20.69h2.96v-15.42l12.41,15.42h2.42v-20.69h-2.96v15.42Zm35.6-10.48c.94,1.56,1.4,3.36,1.4,5.41s-.47,3.85-1.4,5.41c-.94,1.56-2.25,2.77-3.93,3.64-1.69,.87-3.63,1.3-5.84,1.3h-8.72v-20.69h8.72c2.21,0,4.15,.43,5.84,1.3,1.68,.87,2.99,2.08,3.93,3.64Zm-1.55,5.41c0-1.56-.34-2.92-1.03-4.08-.69-1.16-1.66-2.07-2.91-2.72-1.25-.65-2.73-.98-4.45-.98h-5.59v15.55h5.59c1.71,0,3.2-.32,4.45-.98,1.25-.65,2.22-1.56,2.91-2.73,.69-1.17,1.03-2.53,1.03-4.06Zm10.43,1.09h10.37v-2.51h-10.37v-6.35h11.64v-2.57h-14.6v20.69h15.01v-2.57h-12.06v-6.68Zm40.46-8.1c.69,1.08,1.03,2.37,1.03,3.87s-.34,2.78-1.03,3.86c-.69,1.07-1.67,1.9-2.96,2.48s-2.83,.87-4.64,.87h-5.11v6.27h-2.96v-20.69h8.07c1.81,0,3.36,.29,4.64,.86,1.28,.57,2.27,1.4,2.96,2.48Zm-1.92,3.87c0-1.48-.49-2.62-1.46-3.43-.98-.81-2.41-1.21-4.3-1.21h-5.02v9.28h5.02c1.89,0,3.32-.4,4.3-1.21,.97-.81,1.46-1.95,1.46-3.43Zm7.3,13.48h2.96v-20.69h-2.96v20.69Zm18.32-20.69l9.4,20.69h-3.1l-2.27-5.17h-11l-2.27,5.17h-3.04l9.37-20.69h2.93Zm2.98,13.15l-4.46-10.15-4.46,10.15h8.92Zm24.32,2.26l-12.41-15.42h-2.42v20.69h2.96v-15.42l12.41,15.42h2.42v-20.69h-2.96v15.42Zm28.65-9.28c.54,1.29,.81,2.69,.81,4.21s-.27,2.95-.81,4.23c-.54,1.28-1.31,2.4-2.29,3.35-.99,.96-2.15,1.69-3.49,2.22-1.34,.52-2.8,.78-4.37,.78s-3.04-.27-4.39-.8c-1.35-.53-2.52-1.28-3.5-2.23-.99-.96-1.75-2.07-2.31-3.35-.55-1.28-.83-2.68-.83-4.2s.28-2.92,.83-4.2c.55-1.28,1.32-2.4,2.31-3.35,.98-.96,2.15-1.7,3.49-2.23s2.81-.8,4.4-.8,3.03,.26,4.37,.78c1.34,.52,2.5,1.26,3.49,2.22,.98,.96,1.75,2.08,2.29,3.37Zm-2.14,4.21c0-1.14-.2-2.19-.61-3.15-.4-.96-.97-1.8-1.69-2.53s-1.57-1.29-2.54-1.68c-.97-.39-2.04-.59-3.21-.59s-2.2,.2-3.18,.59c-.97,.39-1.83,.96-2.56,1.68s-1.3,1.57-1.7,2.53c-.4,.96-.61,2.01-.61,3.15s.2,2.2,.61,3.16c.4,.97,.97,1.81,1.7,2.53,.73,.72,1.58,1.28,2.56,1.67,.98,.39,2.03,.59,3.18,.59s2.23-.2,3.21-.59c.98-.39,1.82-.95,2.54-1.67,.72-.72,1.28-1.56,1.69-2.53,.4-.97,.61-2.02,.61-3.16Zm20.84,2.04c-.45-.69-1.05-1.24-1.79-1.66s-1.56-.75-2.45-1.01c-.9-.26-1.79-.49-2.67-.69-.89-.21-1.7-.44-2.44-.69-.74-.26-1.34-.6-1.8-1.03-.46-.43-.69-1.02-.69-1.74,0-.61,.17-1.16,.52-1.66,.34-.49,.89-.89,1.64-1.18,.75-.3,1.7-.44,2.87-.44,.93,0,1.88,.13,2.87,.4,.98,.27,1.92,.69,2.81,1.29l.97-2.36c-.87-.59-1.89-1.04-3.07-1.36s-2.37-.47-3.58-.47c-1.81,0-3.31,.27-4.48,.81-1.17,.54-2.04,1.26-2.6,2.16-.56,.9-.84,1.88-.84,2.94s.23,2.01,.68,2.7c.45,.7,1.05,1.26,1.79,1.67,.74,.41,1.56,.75,2.45,1.02,.9,.27,1.79,.5,2.67,.69,.89,.2,1.7,.43,2.44,.69,.74,.27,1.34,.62,1.8,1.05,.46,.43,.69,1,.69,1.71,0,.61-.18,1.16-.53,1.64-.35,.48-.91,.86-1.66,1.14s-1.72,.41-2.93,.41c-1.32,0-2.59-.23-3.81-.68-1.22-.45-2.23-1.02-3.01-1.71l-1.09,2.31c.83,.77,1.96,1.39,3.4,1.88,1.44,.48,2.94,.72,4.52,.72,1.81,0,3.32-.27,4.51-.81,1.19-.54,2.07-1.26,2.64-2.16,.57-.9,.86-1.87,.86-2.91s-.23-1.97-.68-2.66Z"/>
    </g>
  </g>
</svg>